<?xml version="1.0" encoding="UTF-8" standalone="no"?>
<!-- Created with Inkscape (http://www.inkscape.org/) -->

<svg
   version="1.1"
   id="svg2"
   width="791.44269"
   height="341.26532"
   viewBox="0 0 791.44269 341.26532"
   xmlns:xlink="http://www.w3.org/1999/xlink"
   xmlns="http://www.w3.org/2000/svg"
   xmlns:svg="http://www.w3.org/2000/svg">
  <defs
     id="defs6">
    <clipPath
       clipPathUnits="userSpaceOnUse"
       id="clipPath18">
      <path
         d="m 40.976,55.724 h 144.5 v 144.5 h -144.5 z"
         id="path16" />
    </clipPath>
    <clipPath
       clipPathUnits="userSpaceOnUse"
       id="clipPath46">
      <path
         d="M 0,255.949 H 593.582 V 0 H 0 Z"
         id="path44" />
    </clipPath>
  </defs>
  <g
     id="g10"
     transform="matrix(1.3333333,0,0,-1.3333333,0,341.26533)">
    <g
       id="g12">
      <g
         id="g14"
         clip-path="url(#clipPath18)">
        <g
           id="g20">
          <g
             id="g22"
             transform="matrix(375,0,0,375,-74.273628,-102.2757)">
            <image
               width="1"
               height="1"
               style="image-rendering:optimizeSpeed"
               preserveAspectRatio="none"
               transform="matrix(1,0,0,-1,0,1)"
               xlink:href="logo_Title.png"
               id="image24" />
          </g>
        </g>
      </g>
    </g>
    <path
       d="m 201.784,94.124 h -2.096 v 16.048 h 2.096 z"
       style="fill:#050505;fill-opacity:1;fill-rule:nonzero;stroke:none"
       id="path26" />
    <g
       id="g28"
       transform="translate(226.2588,94.124)">
      <path
         d="m 0,0 h -2.096 l -8.426,12.779 V 0 h -2.096 v 16.072 h 2.096 L -2.096,3.316 V 16.072 H 0 Z"
         style="fill:#050505;fill-opacity:1;fill-rule:nonzero;stroke:none"
         id="path30" />
    </g>
    <g
       id="g32"
       transform="translate(247.994,110.1717)">
      <path
         d="m 0,0 v -1.703 h -4.374 v -14.345 h -2.095 v 14.345 h -4.398 V 0 Z"
         style="fill:#050505;fill-opacity:1;fill-rule:nonzero;stroke:none"
         id="path34" />
    </g>
    <g
       id="g36"
       transform="translate(260.9565,108.4687)">
      <path
         d="M 0,0 V -5.365 H 5.848 V -7.092 H 0 v -5.526 h 6.539 v -1.727 H -2.095 V 1.727 H 6.539 V 0 Z"
         style="fill:#050505;fill-opacity:1;fill-rule:nonzero;stroke:none"
         id="path38" />
    </g>
    <g
       id="g40">
      <g
         id="g42"
         clip-path="url(#clipPath46)">
        <g
           id="g48"
           transform="translate(291.1174,105.5207)">
          <path
             d="m 0,0 c -0.445,0.937 -1.09,1.662 -1.934,2.176 -0.844,0.515 -1.827,0.772 -2.947,0.772 -1.12,0 -2.13,-0.257 -3.027,-0.772 -0.898,-0.514 -1.605,-1.251 -2.118,-2.21 -0.515,-0.96 -0.772,-2.068 -0.772,-3.327 0,-1.259 0.257,-2.364 0.772,-3.316 0.513,-0.952 1.22,-1.684 2.118,-2.199 0.897,-0.514 1.907,-0.771 3.027,-0.771 1.566,0 2.855,0.468 3.869,1.405 C 0,-7.306 0.591,-6.04 0.76,-4.443 h -6.401 v 1.704 H 2.994 V -4.351 C 2.871,-5.672 2.456,-6.881 1.751,-7.978 1.044,-9.076 0.115,-9.942 -1.035,-10.579 c -1.152,-0.638 -2.434,-0.956 -3.846,-0.956 -1.489,0 -2.847,0.349 -4.075,1.047 -1.228,0.699 -2.199,1.67 -2.913,2.914 -0.713,1.243 -1.071,2.648 -1.071,4.213 0,1.566 0.358,2.973 1.071,4.224 0.714,1.251 1.685,2.226 2.913,2.925 1.228,0.698 2.586,1.048 4.075,1.048 1.704,0 3.212,-0.422 4.524,-1.267 C 0.956,2.724 1.912,1.535 2.51,0 Z"
             style="fill:#050505;fill-opacity:1;fill-rule:nonzero;stroke:none"
             id="path50" />
        </g>
        <g
           id="g52"
           transform="translate(307.2585,102.367)">
          <path
             d="M 0,0 H 3.085 C 4.221,0 5.073,0.28 5.641,0.841 6.209,1.4 6.493,2.148 6.493,3.085 6.493,4.037 6.213,4.773 5.653,5.296 5.092,5.818 4.237,6.078 3.085,6.078 H 0 Z M 6.355,-8.243 2.533,-1.681 H 0 V -8.243 H -2.096 V 7.805 H 3.085 C 4.297,7.805 5.323,7.598 6.159,7.184 6.996,6.769 7.621,6.208 8.035,5.503 8.45,4.796 8.657,3.99 8.657,3.085 8.657,1.98 8.338,1.005 7.701,0.161 7.065,-0.684 6.109,-1.243 4.835,-1.52 l 4.03,-6.723 z"
             style="fill:#050505;fill-opacity:1;fill-rule:nonzero;stroke:none"
             id="path54" />
        </g>
        <g
           id="g56"
           transform="translate(336.3383,99.3971)">
          <path
             d="M 0,0 -2.901,8.104 -5.803,0 Z M 0.598,-1.704 H -6.401 L -7.69,-5.273 H -9.9 l 5.801,15.956 h 2.418 L 4.099,-5.273 H 1.888 Z"
             style="fill:#050505;fill-opacity:1;fill-rule:nonzero;stroke:none"
             id="path58" />
        </g>
        <g
           id="g60"
           transform="translate(361.1348,110.1717)">
          <path
             d="m 0,0 v -1.703 h -4.374 v -14.345 h -2.095 v 14.345 h -4.398 V 0 Z"
             style="fill:#050505;fill-opacity:1;fill-rule:nonzero;stroke:none"
             id="path62" />
        </g>
        <path
           d="m 374.097,94.124 h -2.095 v 16.048 h 2.095 z"
           style="fill:#050505;fill-opacity:1;fill-rule:nonzero;stroke:none"
           id="path64" />
        <g
           id="g66"
           transform="translate(398.5728,94.124)">
          <path
             d="m 0,0 h -2.096 l -8.426,12.779 V 0 h -2.096 v 16.072 h 2.096 L -2.096,3.316 V 16.072 H 0 Z"
             style="fill:#050505;fill-opacity:1;fill-rule:nonzero;stroke:none"
             id="path68" />
        </g>
        <g
           id="g70"
           transform="translate(422.5862,105.5207)">
          <path
             d="m 0,0 c -0.445,0.937 -1.09,1.662 -1.934,2.176 -0.844,0.515 -1.827,0.772 -2.947,0.772 -1.12,0 -2.13,-0.257 -3.027,-0.772 -0.898,-0.514 -1.605,-1.251 -2.118,-2.21 -0.515,-0.96 -0.772,-2.068 -0.772,-3.327 0,-1.259 0.257,-2.364 0.772,-3.316 0.513,-0.952 1.22,-1.684 2.118,-2.199 0.897,-0.514 1.907,-0.771 3.027,-0.771 1.566,0 2.855,0.468 3.869,1.405 C 0,-7.306 0.591,-6.04 0.76,-4.443 h -6.401 v 1.704 H 2.994 V -4.351 C 2.871,-5.672 2.456,-6.881 1.751,-7.978 1.044,-9.076 0.115,-9.942 -1.035,-10.579 c -1.152,-0.638 -2.434,-0.956 -3.846,-0.956 -1.489,0 -2.847,0.349 -4.075,1.047 -1.228,0.699 -2.199,1.67 -2.913,2.914 -0.713,1.243 -1.071,2.648 -1.071,4.213 0,1.566 0.358,2.973 1.071,4.224 0.714,1.251 1.685,2.226 2.913,2.925 1.228,0.698 2.586,1.048 4.075,1.048 1.704,0 3.212,-0.422 4.524,-1.267 C 0.956,2.724 1.912,1.535 2.51,0 Z"
             style="fill:#050505;fill-opacity:1;fill-rule:nonzero;stroke:none"
             id="path72" />
        </g>
        <g
           id="g74"
           transform="translate(467.3462,110.0574)">
          <path
             d="m 0,0 v -15.933 h -2.095 v 11.88 l -5.295,-11.88 h -1.474 l -5.319,11.903 v -11.903 h -2.095 V 0 h 2.256 L -8.128,-13.17 -2.233,0 Z"
             style="fill:#050505;fill-opacity:1;fill-rule:nonzero;stroke:none"
             id="path76" />
        </g>
        <path
           d="m 481.277,94.124 h -2.096 v 16.048 h 2.096 z"
           style="fill:#050505;fill-opacity:1;fill-rule:nonzero;stroke:none"
           id="path78" />
        <g
           id="g80"
           transform="translate(505.751,94.124)">
          <path
             d="m 0,0 h -2.095 l -8.427,12.779 V 0 h -2.096 v 16.072 h 2.096 L -2.095,3.316 V 16.072 H 0 Z"
             style="fill:#050505;fill-opacity:1;fill-rule:nonzero;stroke:none"
             id="path82" />
        </g>
        <g
           id="g84"
           transform="translate(527.347,97.4973)">
          <path
             d="m 0,0 c 1.09,1.097 1.635,2.636 1.635,4.616 0,1.995 -0.549,3.553 -1.646,4.674 -1.098,1.12 -2.675,1.681 -4.731,1.681 H -7.644 V -1.646 h 2.902 C -2.671,-1.646 -1.09,-1.098 0,0 M -0.196,11.697 C 1.086,11.044 2.069,10.111 2.751,8.899 3.435,7.687 3.777,6.259 3.777,4.616 3.777,2.974 3.435,1.55 2.751,0.345 2.069,-0.86 1.086,-1.781 -0.196,-2.417 -1.477,-3.055 -2.993,-3.373 -4.742,-3.373 h -4.997 v 16.047 h 4.997 c 1.749,0 3.265,-0.325 4.546,-0.977"
             style="fill:#050505;fill-opacity:1;fill-rule:nonzero;stroke:none"
             id="path86" />
        </g>
        <g
           id="g88"
           transform="translate(544.4201,94.5274)">
          <path
             d="m 0,0 c -0.838,0.376 -1.493,0.897 -1.969,1.565 -0.476,0.668 -0.722,1.44 -0.737,2.314 h 2.234 C -0.395,3.127 -0.084,2.494 0.46,1.979 1.005,1.466 1.799,1.208 2.843,1.208 c 0.997,0 1.784,0.25 2.36,0.748 0.576,0.499 0.864,1.14 0.864,1.923 0,0.614 -0.17,1.113 -0.507,1.496 C 5.222,5.759 4.8,6.051 4.293,6.251 3.788,6.45 3.104,6.665 2.245,6.896 1.185,7.172 0.337,7.448 -0.3,7.724 c -0.637,0.277 -1.181,0.71 -1.635,1.301 -0.453,0.591 -0.678,1.385 -0.678,2.384 0,0.874 0.221,1.649 0.668,2.325 0.444,0.675 1.07,1.197 1.875,1.566 0.806,0.368 1.731,0.552 2.775,0.552 1.504,0 2.736,-0.377 3.696,-1.129 C 7.36,13.971 7.9,12.974 8.023,11.73 H 5.721 c -0.076,0.615 -0.399,1.155 -0.967,1.624 -0.568,0.468 -1.32,0.702 -2.256,0.702 -0.875,0 -1.589,-0.227 -2.141,-0.679 -0.553,-0.453 -0.829,-1.086 -0.829,-1.9 0,-0.583 0.164,-1.059 0.495,-1.428 C 0.353,9.682 0.759,9.401 1.243,9.21 1.727,9.017 2.406,8.798 3.281,8.553 4.34,8.262 5.192,7.974 5.836,7.69 6.481,7.405 7.034,6.968 7.494,6.377 7.955,5.786 8.185,4.984 8.185,3.971 8.185,3.188 7.978,2.451 7.563,1.761 7.149,1.07 6.535,0.51 5.721,0.08 4.907,-0.35 3.949,-0.564 2.843,-0.564 1.785,-0.564 0.836,-0.377 0,0"
             style="fill:#050505;fill-opacity:1;fill-rule:nonzero;stroke:none"
             id="path90" />
        </g>
        <g
           id="g92"
           transform="translate(218.2399,137.2923)">
          <path
             d="M 0,0 4.547,9.985 C 6.605,5.911 8.299,2.582 9.627,0 Z M 19.656,0.049 9.138,20.693 h -7.73 -2.25 L -18.551,-18.394 H -8.376 L -3.72,-8.17 h 17.408 l 5.185,-10.224 h 10.176 l -5.235,10.273 z"
             style="fill:#0d4d72;fill-opacity:1;fill-rule:nonzero;stroke:none"
             id="path94" />
        </g>
        <g
           id="g96"
           transform="translate(318.3549,137.2923)">
          <path
             d="M 0,0 4.547,9.985 C 6.605,5.911 8.299,2.582 9.627,0 Z M 19.656,0.049 9.138,20.693 h -7.73 -2.25 L -18.551,-18.394 H -8.376 L -3.72,-8.17 h 17.408 l 5.185,-10.224 h 10.176 l -5.235,10.273 z"
             style="fill:#0d4d72;fill-opacity:1;fill-rule:nonzero;stroke:none"
             id="path98" />
        </g>
        <g
           id="g100"
           transform="translate(253.0952,154.4633)">
          <path
             d="m 0,0 c -2.479,-2.381 -3.718,-5.332 -3.718,-8.855 v -14.382 c 0,-3.523 1.239,-6.474 3.718,-8.855 2.511,-2.348 5.528,-3.522 9.05,-3.522 h 30.233 v 9.148 H 9.05 c -2.446,0 -3.669,1.092 -3.669,3.278 v 14.333 c 0,2.153 1.223,3.229 3.669,3.229 H 39.283 V 3.522 H 9.05 C 5.528,3.522 2.511,2.348 0,0"
             style="fill:#0d4d72;fill-opacity:1;fill-rule:nonzero;stroke:none"
             id="path102" />
        </g>
        <g
           id="g104"
           transform="translate(384.9692,157.9856)">
          <path
             d="M 0,0 H -30.184 V -9.148 H 0.049 c 2.315,0 3.473,-1.076 3.473,-3.229 v -14.334 c 0,-2.185 -1.158,-3.277 -3.473,-3.277 h -21.134 v 15.507 h -9.099 V -39.137 H 0 c 3.522,0 6.523,1.175 9.001,3.523 2.447,2.38 3.669,5.332 3.669,8.854 v 14.383 c 0,3.522 -1.222,6.473 -3.669,8.855 C 6.523,-1.174 3.522,0 0,0"
             style="fill:#0d4d72;fill-opacity:1;fill-rule:nonzero;stroke:none"
             id="path106" />
        </g>
        <g
           id="g108"
           transform="translate(408.7396,154.4633)">
          <path
             d="m 0,0 c -2.479,-2.348 -3.718,-5.301 -3.718,-8.855 v -14.382 c 0,-3.523 1.239,-6.474 3.718,-8.855 2.478,-2.348 5.495,-3.522 9.05,-3.522 h 30.233 v 9.148 H 30.184 27.053 9.05 c -2.446,0 -3.669,1.092 -3.669,3.278 v 14.333 c 0,2.153 1.223,3.229 3.669,3.229 H 39.283 V 3.522 H 9.05 C 5.495,3.522 2.478,2.348 0,0"
             style="fill:#0d4d72;fill-opacity:1;fill-rule:nonzero;stroke:none"
             id="path110" />
        </g>
        <g
           id="g112"
           transform="translate(430.1094,133.8676)">
          <path
             d="m 0,0 h 3.131 9.148 V 9.148 H -9.246 V 0 Z"
             style="fill:#0d4d72;fill-opacity:1;fill-rule:nonzero;stroke:none"
             id="path114" />
        </g>
        <g
           id="g116"
           transform="translate(487.6881,131.8128)">
          <path
             d="m 0,0 -23.482,26.173 h -9.099 v -39.137 h 9.099 V 13.404 L 0,-12.964 H 9.099 V 26.173 H 0 Z"
             style="fill:#0d4d72;fill-opacity:1;fill-rule:nonzero;stroke:none"
             id="path118" />
        </g>
        <g
           id="g120"
           transform="translate(543.4569,131.226)">
          <path
             d="m 0,0 c 0,-2.152 -1.207,-3.229 -3.62,-3.229 h -22.943 c -2.447,0 -3.67,1.077 -3.67,3.229 v 14.383 c 0,2.152 1.223,3.228 3.67,3.228 H -3.62 c 2.413,0 3.62,-1.076 3.62,-3.228 z m 5.43,23.237 c -2.511,2.348 -5.528,3.523 -9.05,3.523 h -22.943 c -3.556,0 -6.573,-1.175 -9.051,-3.523 -2.479,-2.348 -3.718,-5.3 -3.718,-8.854 V 0 c 0,-3.555 1.239,-6.506 3.718,-8.855 2.478,-2.348 5.495,-3.522 9.051,-3.522 H -3.62 c 3.555,0 6.571,1.174 9.05,3.522 2.479,2.381 3.718,5.333 3.718,8.855 v 14.383 c 0,3.522 -1.239,6.473 -3.718,8.854"
             style="fill:#0d4d72;fill-opacity:1;fill-rule:nonzero;stroke:none"
             id="path122" />
        </g>
      </g>
    </g>
  </g>
</svg>
